<?xml version="1.0" standalone="no"?><!DOCTYPE svg PUBLIC "-//W3C//DTD SVG 1.1//EN" "http://www.w3.org/Graphics/SVG/1.1/DTD/svg11.dtd"><svg t="1533736265781" class="icon" style="" viewBox="0 0 1024 1024" version="1.1" xmlns="http://www.w3.org/2000/svg" p-id="2245" xmlns:xlink="http://www.w3.org/1999/xlink" width="200" height="200"><defs><style type="text/css"></style></defs><path d="M512 208.794c53.396 0 105.075 8.363 153.602 24.856 46.197 15.702 87.499 38.029 122.758 66.362 69.107 55.533 107.167 128.124 107.167 204.401s-38.059 148.87-107.167 204.402c-35.259 28.333-76.561 50.661-122.758 66.363-48.527 16.493-100.206 24.856-153.602 24.856-30.649 0-61.145-2.817-90.641-8.371-28.508-5.369-56.266-13.326-82.501-23.651l-22.136-8.712-22.452 7.862-27.887 9.765-58.115 20.35 11.433-60.501 0.264-1.396 6.117-32.358-22.773-23.788c-24.148-25.224-42.833-52.96-55.534-82.437-12.807-29.721-19.301-60.803-19.301-92.383 0-76.277 38.059-148.868 107.167-204.401 35.259-28.333 76.561-50.661 122.758-66.362 48.526-16.494 100.205-24.857 153.601-24.857m0-64c-247.162 0-447.527 161.007-447.527 359.62 0 82.45 34.532 158.417 92.605 219.078l-0.264 1.396-22.58 119.482c-3.547 18.77 11.212 34.835 28.746 34.835 3.202 0 6.496-0.536 9.789-1.689l114.764-40.187 27.887-9.765c59.339 23.353 126.052 36.469 196.58 36.469 247.162 0 447.527-161.007 447.527-359.62S759.162 144.794 512 144.794z" p-id="2246"></path><path d="M320.062 512.5m-64 0a64 64 0 1 0 128 0 64 64 0 1 0-128 0Z" p-id="2247"></path><path d="M512.099 512.5m-64 0a64 64 0 1 0 128 0 64 64 0 1 0-128 0Z" p-id="2248"></path><path d="M704.137 512.5m-64 0a64 64 0 1 0 128 0 64 64 0 1 0-128 0Z" p-id="2249"></path></svg>